<?xml version="1.0" encoding="utf-8"?>
<!-- Generator: Adobe Illustrator 19.2.0, SVG Export Plug-In . SVG Version: 6.00 Build 0)  -->
<svg version="1.1" id="Capa_1" xmlns="http://www.w3.org/2000/svg" xmlns:xlink="http://www.w3.org/1999/xlink" x="0px" y="0px"
	 viewBox="0 0 106.1 133.3" style="enable-background:new 0 0 106.1 133.3;" xml:space="preserve">
<style type="text/css">
	.st0{fill:#E9EAEA;}
	.st1{fill:#A8C836;}
	.st2{fill:#575756;}
	.st3{fill:#FFFFFF;}
	.st4{fill:#BCC0C3;}
</style>
<g>
	<circle class="st0" cx="53" cy="73.2" r="53"/>
</g>
<g>
	<polygon class="st1" points="70.5,131.2 53,113.7 35.5,131.2 35.5,80.9 70.5,80.9 	"/>
	<path class="st2" d="M70.5,133.3c-0.6,0-1.1-0.2-1.5-0.6l-16-16l-16,16c-0.6,0.6-1.5,0.8-2.3,0.5c-0.8-0.3-1.3-1.1-1.3-2V80.9
		c0-1.2,1-2.2,2.2-2.2h35c1.2,0,2.2,1,2.2,2.2v50.3c0,0.9-0.5,1.7-1.3,2C71.1,133.3,70.8,133.3,70.5,133.3z M53,111.5
		c0.6,0,1.1,0.2,1.5,0.6L68.4,126V83H37.7v43l13.8-13.8C51.9,111.7,52.5,111.5,53,111.5z"/>
</g>
<g>
	<path class="st3" d="M57,4.6L57,4.6c1.5,2.6,5,3.2,7.2,1.3l0,0C67,3.4,71.3,5,71.9,8.7l0,0c0.5,3,3.5,4.7,6.3,3.7l0,0
		c3.5-1.3,7,1.7,6.3,5.3l0,0c-0.6,2.9,1.7,5.7,4.7,5.6l0,0c3.7-0.1,6,4,4.1,7.1l0,0c-1.5,2.6-0.3,5.9,2.5,6.9h0
		c3.5,1.2,4.3,5.8,1.4,8.1l0,0c-2.3,1.9-2.3,5.4,0,7.3l0,0c2.9,2.3,2.1,6.9-1.4,8.1h0c-2.8,1-4,4.3-2.5,6.9l0,0
		c1.9,3.2-0.4,7.2-4.1,7.1l0,0c-3,0-5.3,2.7-4.7,5.6v0c0.7,3.6-2.9,6.6-6.3,5.3l0,0c-2.8-1.1-5.9,0.7-6.3,3.7l0,0
		c-0.6,3.7-5,5.2-7.8,2.8l0,0c-2.3-2-5.8-1.3-7.2,1.3l0,0c-1.8,3.2-6.5,3.2-8.3,0l0,0c-1.5-2.6-5-3.2-7.2-1.3l0,0
		c-2.8,2.4-7.2,0.8-7.8-2.8l0,0c-0.5-3-3.5-4.7-6.3-3.7l0,0c-3.5,1.3-7-1.7-6.3-5.3v0c0.6-2.9-1.7-5.7-4.7-5.6l0,0
		c-3.7,0.1-6-4-4.1-7.1l0,0c1.5-2.6,0.3-5.9-2.5-6.9l0,0c-3.5-1.2-4.3-5.8-1.4-8.1l0,0c2.3-1.9,2.3-5.4,0-7.3l0,0
		c-2.9-2.3-2.1-6.9,1.4-8.1l0,0c2.8-1,4-4.3,2.5-6.9l0,0c-1.9-3.2,0.4-7.2,4.1-7.1l0,0c3,0,5.3-2.7,4.7-5.6l0,0
		c-0.7-3.6,2.9-6.6,6.3-5.3l0,0c2.8,1.1,5.9-0.7,6.3-3.7l0,0c0.6-3.7,5-5.2,7.8-2.8l0,0c2.3,2,5.8,1.3,7.2-1.3v0
		C50.5,1.3,55.2,1.3,57,4.6z"/>
	<path class="st2" d="M52.8,98.2C52.8,98.2,52.8,98.2,52.8,98.2c-2.5,0-4.8-1.3-6-3.5c-0.4-0.7-1-1.1-1.8-1.3
		c-0.8-0.1-1.5,0.1-2.1,0.6c-1.9,1.7-4.5,2.1-6.9,1.3c-2.4-0.9-4-2.9-4.4-5.4c-0.1-0.8-0.6-1.4-1.3-1.8c-0.7-0.4-1.5-0.5-2.2-0.2
		c-2.4,0.9-4.9,0.5-6.9-1.2c-1.9-1.6-2.8-4.1-2.3-6.6c0.1-0.8-0.1-1.5-0.6-2.1c-0.5-0.6-1.2-0.9-2-0.9c-2.5,0-4.8-1.2-6.1-3.4
		c-1.3-2.2-1.2-4.8,0.1-7c0.4-0.7,0.5-1.5,0.2-2.2c-0.3-0.7-0.8-1.3-1.6-1.5c-2.4-0.8-4.1-2.8-4.5-5.3c-0.4-2.5,0.5-4.9,2.4-6.5
		c0.6-0.5,0.9-1.2,0.9-2c0-0.8-0.3-1.5-0.9-2c-2-1.6-2.9-4-2.4-6.5c0.4-2.5,2.1-4.5,4.5-5.3c0.7-0.3,1.3-0.8,1.6-1.5
		c0.3-0.7,0.2-1.5-0.2-2.2c-1.3-2.2-1.3-4.8-0.1-7s3.6-3.4,6.1-3.4c0.8,0,1.5-0.3,2-0.9c0.5-0.6,0.7-1.4,0.6-2.1
		c-0.5-2.5,0.4-4.9,2.3-6.6c1.9-1.6,4.5-2.1,6.9-1.2c0.7,0.3,1.5,0.2,2.2-0.2c0.7-0.4,1.1-1.1,1.3-1.8C32,5.8,33.7,3.8,36,3
		c2.4-0.9,4.9-0.4,6.9,1.3c0.6,0.5,1.4,0.7,2.1,0.6c0.8-0.1,1.4-0.6,1.8-1.3c1.2-2.2,3.5-3.5,6-3.5c2.5,0,4.8,1.3,6,3.5c0,0,0,0,0,0
		c0.4,0.7,1,1.1,1.8,1.3c0.8,0.1,1.5-0.1,2.1-0.6c1.9-1.7,4.5-2.1,6.9-1.3c2.4,0.9,4,2.9,4.4,5.4c0.1,0.8,0.6,1.4,1.3,1.8
		c0.7,0.4,1.5,0.5,2.2,0.2c2.4-0.9,4.9-0.5,6.9,1.2c1.9,1.6,2.8,4.1,2.3,6.6c-0.1,0.8,0.1,1.5,0.6,2.1c0.5,0.6,1.2,0.9,2,0.9
		c0,0,0.1,0,0.1,0c2.5,0,4.7,1.3,5.9,3.4c1.3,2.2,1.2,4.8-0.1,7c-0.4,0.7-0.5,1.5-0.2,2.2c0.3,0.7,0.8,1.3,1.6,1.5
		c2.4,0.8,4.1,2.8,4.5,5.3c0.4,2.5-0.5,4.9-2.4,6.5c-0.6,0.5-0.9,1.2-0.9,2c0,0.8,0.3,1.5,0.9,2c2,1.6,2.9,4,2.4,6.5
		c-0.4,2.5-2.1,4.5-4.5,5.3c-0.7,0.3-1.3,0.8-1.6,1.5c-0.3,0.7-0.2,1.5,0.2,2.2c1.3,2.2,1.3,4.8,0.1,7c-1.2,2.2-3.5,3.4-5.9,3.4
		c-0.1,0-0.1,0-0.2,0c-0.8,0-1.5,0.3-2,0.9c-0.5,0.6-0.7,1.4-0.6,2.1c0.5,2.5-0.4,4.9-2.3,6.6c-1.9,1.6-4.5,2.1-6.9,1.2
		c-0.7-0.3-1.5-0.2-2.2,0.2c-0.7,0.4-1.1,1.1-1.3,1.8c-0.4,2.5-2.1,4.5-4.4,5.4c-2.4,0.9-4.9,0.4-6.9-1.3c-0.6-0.5-1.4-0.7-2.1-0.6
		c-0.8,0.1-1.4,0.6-1.8,1.3C57.6,96.8,55.4,98.2,52.8,98.2z M44.6,89c0.4,0,0.8,0,1.2,0.1c2,0.4,3.8,1.6,4.8,3.4
		c0.5,0.8,1.3,1.3,2.2,1.3c0.9,0,1.8-0.5,2.2-1.3c1-1.8,2.8-3.1,4.8-3.4c2-0.4,4.1,0.2,5.7,1.6c0.7,0.6,1.7,0.8,2.6,0.5
		c0.9-0.3,1.5-1.1,1.7-2c0.3-2.1,1.6-3.8,3.4-4.9c1.8-1,3.9-1.2,5.9-0.5c0.9,0.3,1.8,0.2,2.6-0.4c0.7-0.6,1.1-1.5,0.9-2.5
		c-0.4-2,0.1-4.1,1.5-5.7c1.3-1.6,3.3-2.4,5.4-2.5c0,0,0,0,0,0c0.9,0,1.8-0.5,2.2-1.3c0.5-0.8,0.5-1.8,0-2.6
		c-1.1-1.8-1.3-3.9-0.6-5.9c0.7-2,2.2-3.5,4.2-4.1c0.9-0.3,1.5-1.1,1.7-2c0.2-0.9-0.2-1.8-0.9-2.4c-1.6-1.3-2.5-3.3-2.5-5.3
		c0-2.1,0.9-4,2.5-5.3c0.7-0.6,1.1-1.5,0.9-2.4c-0.2-0.9-0.8-1.7-1.7-2c-2-0.7-3.5-2.2-4.2-4.1c-0.7-2-0.5-4.1,0.6-5.9
		c0.5-0.8,0.5-1.8,0-2.6c-0.5-0.8-1.3-1.3-2.3-1.3c0,0-0.1,0-0.1,0c-2,0-4-0.9-5.3-2.5c-1.3-1.6-1.9-3.7-1.5-5.7
		c0.2-0.9-0.1-1.8-0.9-2.5c-0.7-0.6-1.7-0.8-2.6-0.4c-1.9,0.7-4.1,0.6-5.9-0.5s-3-2.8-3.4-4.9c-0.1-0.9-0.8-1.7-1.7-2
		c-0.9-0.3-1.8-0.1-2.6,0.5c-1.6,1.4-3.6,1.9-5.7,1.6c-2-0.4-3.8-1.6-4.8-3.4l1.9-1l-1.9,1c-0.5-0.8-1.3-1.3-2.2-1.3
		c-0.9,0-1.8,0.5-2.2,1.3c-1,1.8-2.8,3.1-4.8,3.4c-2,0.4-4.1-0.2-5.7-1.6c-0.7-0.6-1.7-0.8-2.6-0.5c-0.9,0.3-1.5,1.1-1.7,2
		c-0.3,2.1-1.6,3.8-3.4,4.9c-1.8,1-3.9,1.2-5.9,0.5c-0.9-0.3-1.8-0.2-2.6,0.4c-0.7,0.6-1.1,1.5-0.9,2.5c0.4,2-0.1,4.1-1.5,5.7
		c-1.3,1.6-3.3,2.4-5.4,2.5c-1,0-1.8,0.5-2.3,1.3c-0.5,0.8-0.5,1.8,0,2.6c1.1,1.8,1.3,3.9,0.6,5.9c-0.7,2-2.2,3.5-4.2,4.1
		c-0.9,0.3-1.5,1.1-1.7,2c-0.2,0.9,0.2,1.8,0.9,2.4c1.6,1.3,2.5,3.3,2.5,5.3c0,2.1-0.9,4-2.5,5.3c-0.7,0.6-1.1,1.5-0.9,2.4
		c0.2,0.9,0.8,1.7,1.7,2c2,0.7,3.5,2.2,4.2,4.1c0.7,2,0.5,4.1-0.6,5.9c-0.5,0.8-0.5,1.8,0,2.6c0.5,0.8,1.3,1.3,2.3,1.3
		c0,0,0.1,0,0.1,0c2,0,4,0.9,5.3,2.5c1.3,1.6,1.9,3.7,1.5,5.7c-0.2,0.9,0.1,1.8,0.9,2.5c0.7,0.6,1.7,0.8,2.6,0.4
		c1.9-0.7,4.1-0.6,5.9,0.5c1.8,1,3,2.8,3.4,4.9c0.1,0.9,0.8,1.7,1.7,2c0.9,0.3,1.8,0.1,2.6-0.5C41.3,89.6,42.9,89,44.6,89z"/>
</g>
<g>
	<path class="st4" d="M77.6,30.2c-1.2-1.6-2.6-3.1-4.1-4.5l2.9-3.2c1.7,1.5,3.3,3.2,4.7,5.1L77.6,30.2z"/>
</g>
<g>
	<path class="st4" d="M28.5,30.2l-3.4-2.6c6.7-8.9,16.9-14,28-14c6.6,0,13.1,1.9,18.6,5.4l-2.3,3.6c-4.9-3.1-10.5-4.7-16.3-4.7
		C43.3,17.9,34.4,22.4,28.5,30.2z"/>
</g>
<g>
	<path class="st4" d="M29.7,74.6c-2.4-2.2-4.5-4.7-6.3-7.4l3.6-2.3c1.5,2.4,3.4,4.6,5.5,6.5L29.7,74.6z"/>
</g>
<g>
	<path class="st4" d="M53,83.5c-6.6,0-13.1-1.9-18.6-5.4l2.3-3.6c4.9,3.1,10.5,4.7,16.3,4.7c10.6,0,20.3-5.3,25.9-14.3l3.6,2.3
		C76.2,77.4,65.1,83.5,53,83.5z"/>
</g>
<g>
	<path class="st2" d="M43.9,40.2c2.3-1.1,4.2-1.8,7.2-5.4h7.3v23.1h3.8v5.4H45.8v-5.4h4.1V42.8l-4.1,1.9L43.9,40.2z"/>
</g>
</svg>
