<?xml version="1.0" encoding="utf-8"?>
<!-- Generator: Adobe Illustrator 19.2.0, SVG Export Plug-In . SVG Version: 6.00 Build 0)  -->
<svg version="1.1" id="Capa_1" xmlns="http://www.w3.org/2000/svg" xmlns:xlink="http://www.w3.org/1999/xlink" x="0px" y="0px"
	 viewBox="0 0 144.9 132.2" style="enable-background:new 0 0 144.9 132.2;" xml:space="preserve">
<style type="text/css">
	.st0{fill:#BCC0C3;}
	.st1{fill:#A5C536;}
	.st2{fill:#585756;}
</style>
<g>
	<g>
		<g>
			<rect x="129.7" y="3.9" class="st0" width="5.1" height="7.6"/>
		</g>
		<g>
			<rect x="129.7" y="21.6" class="st0" width="5.1" height="7.6"/>
		</g>
		<g>
			<rect x="119.6" y="14.1" class="st0" width="7.6" height="5.1"/>
		</g>
		<g>
			<rect x="137.3" y="14.1" class="st0" width="7.6" height="5.1"/>
		</g>
	</g>
</g>
<polygon class="st1" points="66.1,38.6 74.5,55.7 93.4,58.5 79.8,71.8 83,90.6 66.1,81.7 49.2,90.6 52.4,71.8 38.8,58.5 57.7,55.7 
	"/>
<path class="st2" d="M86.3,95.2L66.1,84.6L45.9,95.2l3.9-22.5l-16.4-16L56,53.4l10.1-20.5l10.1,20.5l22.6,3.3l-16.4,16L86.3,95.2z
	 M66.1,78.8L79.6,86L77,70.9L88,60.2L72.9,58l-6.8-13.7L59.3,58l-15.1,2.2l10.9,10.7L52.6,86L66.1,78.8z"/>
<g>
	<path class="st2" d="M67.2,109.8c-23.5,0-42.6-19.1-42.6-42.6s19.1-42.6,42.6-42.6c23.5,0,42.5,19.1,42.5,42.6
		S90.7,109.8,67.2,109.8z M67.2,29.1c-21,0-38.1,17.1-38.1,38.1s17.1,38.1,38.1,38.1c21,0,38.1-17.1,38.1-38.1S88.2,29.1,67.2,29.1z
		"/>
</g>
<g>
	<g>
		<path class="st0" d="M63.4,132.2C27,130.7-1.4,99.9,0.1,63.4c0.1-1.4,0.2-2.8,0.4-4.6l4.5,0.5c-0.2,1.6-0.3,3-0.3,4.3
			c-1.4,34,25.1,62.7,59.1,64.1L63.4,132.2z"/>
	</g>
	<g>
		<path class="st0" d="M92.7,126.7l-1.8-4.1c21.8-9.6,35.9-30.2,36.8-53.9c0.4-10.8-2-21.6-7-31.1l4-2.1c5.4,10.2,8,21.8,7.5,33.4
			C131.1,94.2,116,116.4,92.7,126.7z"/>
	</g>
	<g>
		<path class="st0" d="M14,33.2l-3.8-2.4c12.6-19.9,35-31.7,58.5-30.7C82,0.6,94.6,5,105.3,12.8l-2.7,3.6C92.7,9.2,80.9,5,68.6,4.5
			C46.7,3.7,25.8,14.6,14,33.2z"/>
	</g>
	<g>
		<path class="st0" d="M25.7,102.6C5.5,80.6,6.9,46.3,28.8,26c0.9-0.9,1.9-1.7,2.9-2.5l2.8,3.5c-0.9,0.7-1.8,1.5-2.6,2.3
			C11.7,47.9,10.4,79.4,29,99.6L25.7,102.6z"/>
	</g>
</g>
</svg>
