<?xml version="1.0" encoding="utf-8"?>
<!-- Generator: Adobe Illustrator 19.2.0, SVG Export Plug-In . SVG Version: 6.00 Build 0)  -->
<svg version="1.1" id="Capa_1" xmlns="http://www.w3.org/2000/svg" xmlns:xlink="http://www.w3.org/1999/xlink" x="0px" y="0px"
	 viewBox="0 0 116.3 113.9" style="enable-background:new 0 0 116.3 113.9;" xml:space="preserve">
<style type="text/css">
	.st0{fill:#E8E9E9;}
	.st1{fill:#FFFFFF;}
	.st2{fill:#585756;}
	.st3{fill:#A8C836;}
</style>
<circle class="st0" cx="57.9" cy="48" r="48"/>
<path class="st1" d="M114.3,53.8c-0.1-2.3-2-15.9-3.8-20.5c-2-0.3-4.8,1.4-6.9,4.8c-2,3.2-2.8,7.1-1.1,12.3l-2.4,9.2
	c-1.7-0.4-3.6,0-5.3,1.8c-1.6,1.6-4.1,4.1-8.2,8.2c-1.2,1.2-6.9,0.7-8.8,2.7c-0.9,0.9-4.9,4.9-6.9,6.9c-2,2-2.9,6.3-2.9,9.1
	c0,4.4,0,15.7,0,15.7s19.4,0,22.8,0c0-4-0.6-6.6,1.7-8.9c1.8-1.8,17.9-17.9,19.8-19.7C112.9,72.7,114.4,56.3,114.3,53.8z"/>
<path class="st2" d="M92.8,105.9H65.9V88.2c0-2.6,0.7-7.8,3.4-10.5c1.2-1.2,3-3.1,4.6-4.6c1.1-1.1,2-2,2.3-2.3
	c1.6-1.6,4.1-1.9,6.4-2.3c0.9-0.1,2.2-0.3,2.5-0.5l8.1-8.1c1.5-1.5,3.4-2.4,5.2-2.5l1.9-7c-1.5-5-1-9.4,1.5-13.4
	c2.4-3.9,5.9-6.1,8.9-5.7l1.1,0.2l0.4,1.1c1.9,4.8,3.8,18.6,4,21.1c0.2,2.8-1.3,19.4-2.1,22.2l-0.1,0.5l-0.4,0.4
	c-0.7,0.7-3.2,3.2-6.3,6.2C102,88.3,95,95.2,93.9,96.4c-1.2,1.2-1.2,2.6-1.2,5.5c0,0.6,0,1.3,0,2V105.9z M69.9,101.9h18.8
	c-0.1-3-0.1-5.8,2.3-8.3c1.2-1.2,8.1-8.1,13.5-13.5c2.6-2.6,4.9-4.8,5.9-5.8c0.7-3.5,2-18.2,1.9-20.4c-0.1-2.3-1.7-13.3-3.2-18.4
	c-1,0.4-2.5,1.5-3.8,3.7c-1.9,3.1-2.2,6.5-0.9,10.6l0.2,0.6l-2.1,8.1c1.8,1,3.1,2.7,3.7,4.8c0.7,2.6-0.1,5.3-2.2,7.4L92.4,82
	l-2.8-2.8l11.5-11.5c1.4-1.4,1.4-2.7,1.1-3.6c-0.3-1.3-1.4-2.3-2.6-2.6c-1.2-0.3-2.4,0.1-3.5,1.2l-8.2,8.2c-1,1-2.7,1.3-4.7,1.5
	c-1.4,0.2-3.6,0.5-4.2,1.1c-0.4,0.4-1.2,1.2-2.3,2.3c-1.5,1.5-3.4,3.4-4.6,4.6c-1.4,1.4-2.3,5-2.3,7.7V101.9z"/>
<polyline class="st0" points="95.9,113.9 95.9,99.9 63.9,99.9 63.9,113.9 "/>
<polygon class="st2" points="97.9,113.9 93.9,113.9 93.9,101.9 65.9,101.9 65.9,113.9 61.9,113.9 61.9,97.9 97.9,97.9 "/>
<rect x="69.9" y="105.9" class="st2" width="6" height="4"/>
<path class="st1" d="M45.3,79.1c-2-2-5.8-6.1-6.7-6.9c-2-2-7.6-1.4-8.8-2.7c-4.1-4.1-6.6-6.6-8.2-8.2c-1.9-1.9-3.9-2.2-5.6-1.7
	l-2.1-9.3c1.7-5.2,0.9-9-1.1-12.3c-2.1-3.4-4.9-5.1-6.9-4.8C4,37.9,2.1,51.5,2,53.8c-0.1,2.4,1.3,18.9,2,21.5
	C5.9,77.1,22,93.2,23.8,95c2.3,2.3,1.7,4.9,1.7,8.9c3.5,0,22.5,0,22.5,0s0-11.3,0-15.7C48,85.4,47.3,81.1,45.3,79.1z"/>
<path class="st2" d="M50,105.9H23.5v-2c0-0.7,0-1.4,0-2c0.1-2.9,0.1-4.2-1.2-5.5c-1.2-1.2-8.2-8.2-13.6-13.5c-3-3-5.5-5.5-6.2-6.2
	l-0.4-0.4l-0.1-0.5C1.3,73.1-0.1,56.4,0,53.7c0.1-2.5,2-16.3,4-21.1l0.4-1.1l1.1-0.2c3-0.4,6.5,1.8,8.9,5.7c2.5,4,2.9,8.4,1.5,13.4
	l1.6,7c1.8,0,3.8,0.7,5.5,2.5l8.2,8.2c0.2,0.1,1.5,0.3,2.4,0.4c2.3,0.3,4.9,0.7,6.4,2.3c0.4,0.4,1.2,1.2,2.2,2.3
	c1.5,1.5,3.3,3.5,4.5,4.7C49.8,80.8,50,87,50,88.2V105.9z M27.5,101.9H46V88.2c0-2.8-0.7-6.3-2.1-7.7c-1.2-1.2-3.1-3.2-4.6-4.7
	c-1-1-1.8-1.9-2.1-2.2c-0.6-0.6-2.8-0.9-4.2-1.1c-2-0.3-3.6-0.5-4.7-1.5l-8.2-8.2c-2-2-3.9-1.4-5.1-0.3c-1,1-2,3.1,0.1,5.3
	l11.5,11.5L23.8,82L12.3,70.5c-3.6-3.6-2.7-8.3-0.1-10.9c0.4-0.4,0.9-0.8,1.4-1.1l-1.9-8.3l0.2-0.5c1.3-4.1,1-7.5-0.9-10.6
	c-1.3-2.1-2.8-3.2-3.8-3.7C5.7,40.6,4.1,51.6,4,53.9c-0.1,2.2,1.2,16.9,1.9,20.4c1,1,3.2,3.2,5.8,5.8c5.4,5.4,12.4,12.4,13.6,13.5
	C27.7,96.1,27.6,98.9,27.5,101.9z"/>
<polyline class="st0" points="20,113.9 20,99.9 52,99.9 52,113.9 "/>
<polygon class="st2" points="54,113.9 50,113.9 50,101.9 22,101.9 22,113.9 18,113.9 18,97.9 54,97.9 "/>
<rect x="40" y="105.9" class="st2" width="6" height="4"/>
<polygon class="st3" points="57.9,65.9 81.9,52.1 81.9,24.4 57.9,10 34,24.4 34,52.1 "/>
<path class="st2" d="M57.9,68.3l-26-15V23.3l26-15.6l26,15.6v29.9L57.9,68.3z M36,50.9l22,12.7l22-12.7V25.6l-22-13.2L36,25.6V50.9z
	"/>
<polygon class="st2" points="58,40.7 40.9,29.7 43.1,26.3 58,35.9 73,26.3 75.1,29.7 "/>
<rect x="56" y="40" class="st2" width="4" height="18"/>
</svg>
