<?xml version="1.0" encoding="utf-8"?>
<!-- Generator: Adobe Illustrator 19.2.0, SVG Export Plug-In . SVG Version: 6.00 Build 0)  -->
<svg version="1.1" id="Capa_1" xmlns="http://www.w3.org/2000/svg" xmlns:xlink="http://www.w3.org/1999/xlink" x="0px" y="0px"
	 viewBox="0 0 121.7 141.5" style="enable-background:new 0 0 121.7 141.5;" xml:space="preserve">
<style type="text/css">
	.st0{fill:#E8E9E9;}
	.st1{fill:#585756;}
	.st2{fill:#A8C836;}
	.st3{fill:#FFFFFF;}
</style>
<g>
	<g>
		<circle class="st0" cx="53.3" cy="85.9" r="52.4"/>
	</g>
</g>
<g>
	<path class="st1" d="M76.8,73.6h-4.5V50.1c0-3-0.9-6.1-2.6-8.8l3.8-2.3c2.1,3.4,3.3,7.3,3.3,11.1V73.6z"/>
</g>
<circle class="st2" cx="63.4" cy="22.3" r="20.1"/>
<path class="st1" d="M63.4,44.6c-6,0-11.6-2.3-15.8-6.5s-6.5-9.8-6.5-15.8l0,0l0,0C41.1,10,51.1,0,63.4,0c12.3,0,22.3,10,22.3,22.3
	S75.7,44.6,63.4,44.6z M63.4,4.5c-9.8,0-17.8,8-17.8,17.8l0,0c0,4.8,1.9,9.2,5.2,12.6c3.4,3.4,7.9,5.2,12.6,5.2
	c9.8,0,17.8-8,17.8-17.8S73.2,4.5,63.4,4.5z"/>
<g>
	<polygon class="st0" points="99.1,87 87.9,78.1 81.2,78.1 74.5,73.6 70.1,73.6 65.6,71.4 58.9,75.8 54.5,75.8 47.8,78.1 45.5,87 
		45.5,98.2 99.1,98.2 	"/>
	<path class="st1" d="M101.3,100.4h-58l0.1-13.9l2.5-10.1l8.2-2.7h4.1l7.2-4.8l5.1,2.6h4.6l6.7,4.5h6.8l12.6,10.1V100.4z M47.8,95.9
		h49.1v-7.9l-9.7-7.8h-6.6l-6.7-4.5h-4.3L65.8,74l-6.2,4.1h-4.8l-5.2,1.7l-1.9,7.5V95.9z"/>
</g>
<g>
	<path class="st3" d="M101.3,84.8l-13.8,8.8c-0.9-2.6-3.4-4.4-6.3-4.4H67.8c-3.1,0-7.7-4.5-11.4-4.5c-1.6,0-9.3,0-13.1,0
		c-5.4,0-10.7,4.2-13.4,6.7c-4.2,4.2-12.2,12.4-13.4,13.4c6.7,5.8,19.2,18.3,22.3,21c4.1-4.1,5.8-7.6,9.2-7.6c3.4,0,29.8,0,33.2,0
		c3.1-1.7,22.3-17.8,22.3-17.8s13-14,15.6-20.1C117.5,78.1,107.4,74.9,101.3,84.8z"/>
</g>
<g>
	<path class="st1" d="M38.9,128.9l-1.6-1.4c-1.2-1.1-3.7-3.4-6.8-6.5c-5.1-4.9-11.4-10.9-15.5-14.5l-2-1.7l2.1-1.7
		c0.7-0.6,4.9-4.8,8.2-8.2c1.8-1.8,3.6-3.6,5-5c3-2.8,8.8-7.3,15-7.3h13.1c2.5,0,5,1.4,7.3,2.7C65.2,86,67,87,67.8,87h13.4
		c2.9,0,5.4,1.4,7.1,3.5l11.4-7.3c3-4.6,7.3-7.2,12.2-7.4c3.7-0.1,7.6,1.2,9.1,3.2l0.8,1l-0.5,1.2c-2.7,6.3-15.5,20.1-16,20.7
		l-0.2,0.2c-2,1.7-19.5,16.3-22.7,18.1l-0.5,0.3H48c-1.4,0-2.4,1.1-4.5,3.5c-0.9,1-1.9,2.2-3.1,3.4L38.9,128.9z M19.8,104.8
		c4.1,3.7,9.4,8.8,13.8,13c2,1.9,3.8,3.6,5.1,4.9c0.5-0.6,1-1.1,1.4-1.6c2.4-2.7,4.4-5,7.9-5h32.6c3-2,14.2-11.2,21.4-17.2
		c3.3-3.5,11.3-12.6,14.3-17.8c-1-0.4-2.7-0.9-4.6-0.7c-2.4,0.2-5.8,1.3-8.5,5.7l-0.3,0.4l-12.9,8.2c0.1,0.4,0.1,0.9,0.1,1.3
		c0,4.9-4,8.9-8.9,8.9H58.9v-4.5h22.3c2.5,0,4.5-2,4.5-4.5s-2-4.5-4.5-4.5H67.8c-2,0-4.1-1.1-6.3-2.4c-1.8-1-3.8-2.1-5.1-2.1H43.3
		c-4.6,0-9.4,3.8-11.9,6.1c-1.3,1.3-3.1,3.1-4.9,4.9C23.6,101,21.3,103.3,19.8,104.8z"/>
</g>
<g>
	<rect x="16" y="93.9" transform="matrix(0.7071 -0.7071 0.7071 0.7071 -74.5695 51.982)" class="st0" width="18.9" height="44.2"/>
	<path class="st1" d="M34.4,141.5L0,107.1l16.5-16.5l34.4,34.4L34.4,141.5z M6.3,107.1l28.1,28.1l10.2-10.2L16.5,96.9L6.3,107.1z"/>
</g>
<g>
	
		<rect x="14.3" y="103.9" transform="matrix(0.7071 -0.7071 0.7071 0.7071 -70.8733 43.0586)" class="st1" width="4.5" height="6.3"/>
</g>
<path class="st2" d="M94.6,60.2H83.5l0,0c0-8.6,7-15.6,15.6-15.6h11.2l0,0C110.2,53.2,103.2,60.2,94.6,60.2z"/>
<path class="st1" d="M94.6,62.5H81.2v-2.2c0-9.8,8-17.8,17.8-17.8h13.4v2.2C112.5,54.5,104.5,62.5,94.6,62.5z M85.9,58h8.7
	c6.6,0,12.1-4.8,13.2-11.2h-8.7C92.5,46.8,86.9,51.7,85.9,58z"/>
<g>
	<path class="st3" d="M61.2,62.5h6.7l0,0c0-6.2-5-11.2-11.2-11.2H50l0,0C50,57.5,55,62.5,61.2,62.5z"/>
	<path class="st1" d="M70.1,64.7h-8.9c-7.4,0-13.4-6-13.4-13.4v-2.2h8.9c7.4,0,13.4,6,13.4,13.4V64.7z M52.5,53.5
		c1,3.8,4.5,6.7,8.6,6.7h4.2c-1-3.8-4.5-6.7-8.6-6.7H52.5z"/>
</g>
<g>
	<path class="st1" d="M65.6,31.2h-8.9v-4.5h8.9v-2.2h-4.5c-2.5,0-4.5-2-4.5-4.5v-2.2c0-2.5,2-4.5,4.5-4.5h8.9v4.5h-8.9v2.2h4.5
		c2.5,0,4.5,2,4.5,4.5v2.2C70.1,29.2,68.1,31.2,65.6,31.2z"/>
</g>
<g>
	<rect x="61.2" y="8.9" class="st1" width="4.5" height="6.7"/>
</g>
<g>
	<rect x="61.2" y="29" class="st1" width="4.5" height="6.7"/>
</g>
</svg>
