<svg xmlns="http://www.w3.org/2000/svg">
    <symbol id="icon-arrowUp" viewBox="0 0 38 72">
        <path d="M22 52V27.243l7.88 7.878c1.17 1.173 3.07 1.173 4.24 0 1.173-1.17 1.173-3.07 0-4.24l-13-13c-1.17-1.173-3.07-1.173-4.24 0l-13 13C3.292 31.463 3 32.23 3 33s.293 1.536.88 2.12c1.17 1.173 3.07 1.173 4.24 0L16 27.244V52c0 1.657 1.343 3 3 3s3-1.343 3-3z" id="icon" />
    </symbol>
    <symbol id="icon-circleFill" viewBox="0 0 60 72">
        <path d="M30 9C15.114 9 3 21.11 3 36s12.112 26.998 27 26.998 27-12.11 27-27S44.89 9 30 9z" id="icon" />
    </symbol>
    <symbol id="icon-chevronDown" viewBox="0 0 40 72">
        <path d="M20 40.758L8.12 28.878c-1.17-1.17-3.07-1.17-4.24 0-1.173 1.172-1.173 3.072 0 4.243l14 14c1.17 1.173 3.07 1.173 4.24 0l14-14c.587-.585.88-1.352.88-2.12s-.293-1.535-.88-2.12c-1.17-1.173-3.07-1.173-4.24 0L20 40.757z" id="icon" />
    </symbol>
    <symbol id="icon-close" viewBox="0 0 46 72">
        <path d="M27.243 36l14.88-14.88c1.17-1.17 1.17-3.07 0-4.24-1.172-1.173-3.072-1.173-4.243 0L23 31.757 8.122 16.878c-1.17-1.17-3.07-1.17-4.242 0-1.172 1.172-1.172 3.072 0 4.243L18.758 36 3.878 50.88c-1.17 1.17-1.17 3.07 0 4.24.587.587 1.355.88 2.123.88s1.536-.293 2.122-.88L23 40.243l14.88 14.88c.585.585 1.353.878 2.12.878.768 0 1.535-.293 2.12-.88 1.173-1.17 1.173-3.07 0-4.24L27.244 36z" id="icon" />
    </symbol>
    <symbol id="icon-controlsLess" viewBox="0 0 60 72">
        <g id="icon">
            <path fill="#FFCC4D" d="M57 36c0 14.91-12.09 27-27 27S3 50.91 3 36 15.09 9 30 9s27 12.09 27 27" />
            <ellipse fill="#664500" cx="20.25" cy="33.75" rx="3.75" ry="5.25" />
            <ellipse fill="#664500" cx="39.75" cy="33.75" rx="3.75" ry="5.25" />
            <path fill="#664500" d="M21 51c3-7.5 19.5-7.5 19.5-4.5 0 1.5-12-1.5-19.5 4.5z" />
        </g>
    </symbol>
    <symbol id="icon-controlsMore" viewBox="0 0 60 72">
        <g id="icon">
            <path fill="#FFCC4D" d="M57 36c0 14.912-12.088 27-27 27C15.09 63 3 50.912 3 36 3 21.09 15.09 9 30 9c14.912 0 27 12.09 27 27" />
            <path fill="#664500" d="M30 41.773c-4.45 0-7.403-.52-11.054-1.23-.835-.16-2.457 0-2.457 2.458 0 4.914 5.644 11.055 13.51 11.055 7.865 0 13.51-6.14 13.51-11.054 0-2.456-1.624-2.617-2.458-2.456-3.65.71-6.602 1.23-11.052 1.23" />
            <path fill="#E75A70" d="M27.975 13.92c-1.288-3.645-5.287-5.56-8.933-4.273-2.215.78-3.78 2.566-4.392 4.657-1.787-1.244-4.127-1.65-6.337-.87C4.667 14.72 2.75 18.72 4.04 22.366c.182.516.425.995.707 1.437 2.926 5.372 11.38 9.15 16.5 9.196 3.956-3.25 8.17-11.497 7.078-17.515-.058-.522-.17-1.047-.35-1.564zM32.024 13.92c1.29-3.645 5.288-5.56 8.934-4.273 2.215.78 3.78 2.566 4.393 4.657 1.788-1.244 4.127-1.65 6.338-.87 3.645 1.286 5.56 5.286 4.274 8.933-.185.516-.426.995-.71 1.437-2.925 5.373-11.38 9.15-16.5 9.196-3.956-3.25-8.17-11.497-7.076-17.515.057-.522.17-1.047.348-1.564z" />
        </g>
    </symbol>
    <symbol id="icon-drawer" viewBox="0 0 50 72">
        <g id="icon">
            <path d="M44 23H6c-1.657 0-3-1.343-3-3s1.343-3 3-3h38c1.657 0 3 1.343 3 3s-1.343 3-3 3zM44 39.007H6c-1.657 0-3-1.343-3-3s1.343-3 3-3h38c1.657 0 3 1.343 3 3s-1.343 3-3 3zM44 55H6c-1.657 0-3-1.343-3-3s1.343-3 3-3h38c1.657 0 3 1.343 3 3s-1.343 3-3 3z" />
        </g>
    </symbol>
    <symbol id="icon-favorite" viewBox="0 0 56 72">
        <path d="M52.366 28.943c-.374-1.17-1.463-1.963-2.693-1.963h-14.19l-4.808-14.07C30.285 11.767 29.21 11 28 11s-2.285.767-2.676 1.91l-4.81 14.07H6.328c-1.23 0-2.32.794-2.693 1.963-.374 1.17.053 2.446 1.055 3.156l11.33 8.03-4.83 14.14c-.396 1.158.002 2.44.986 3.17.983.73 2.327.748 3.328.04L28 48.62l12.497 8.858c.49.348 1.064.522 1.638.522.595 0 1.19-.187 1.69-.56.983-.73 1.382-2.012.986-3.17l-4.83-14.14 11.33-8.03c1.003-.712 1.43-1.988 1.056-3.157z" id="icon" />
    </symbol>
    <symbol id="icon-follow" viewBox="0 0 78 72">
        <g id="icon">
            <path d="M42.812 36.24c1.55 0 3.915-2.762 4.36-6.452.476-3.903-1.66-4-1.66-4S45.22 11.35 32 11.35c-1.685 0-4.33.244-6.537 2.232-6.23.744-6.975 12.207-6.975 12.207s-2.136.095-1.66 3.998c.446 3.69 2.81 6.453 4.36 6.453 0 0 4.138 10.76 10.812 10.76s10.812-10.76 10.812-10.76zM55 51.327C52.66 50.157 48.327 48.5 42 47c-3.537 4-7.45 5-10 5s-6.463-1-10-5c-6.327 1.5-10.66 3.156-13 4.327-2.34 1.17-3 4.577-3 6.673 0 3 .875 5 4 5h44c3.125 0 4-2 4-5 0-2.096-.66-5.502-3-6.673zM72 30h-5v-5c0-1.657-1.343-3-3-3s-3 1.343-3 3v5h-5c-1.657 0-3 1.343-3 3s1.343 3 3 3h5v5c0 1.657 1.343 3 3 3s3-1.343 3-3v-5h5c1.657 0 3-1.343 3-3s-1.343-3-3-3z" />
        </g>
    </symbol>
    <symbol id="icon-gif" viewBox="0 0 78 72">
        <g id="icon">
            <path d="M37.823 20.862h7.827V52.17h-7.827zM53.477 52.167h7.827V42.38h11.74v-7.825h-11.74v-5.87H75V20.86H53.477zM18.654 20.86C10.024 20.86 3 27.882 3 36.513c0 8.63 7.024 15.653 15.654 15.653 4.678 0 8.87-2.07 11.74-5.333V34.555H16.697v5.872h5.87v2.826c-1.156.673-2.48 1.087-3.913 1.087-4.315 0-7.827-3.51-7.827-7.827s3.512-7.827 7.827-7.827c2.178 0 4.204.925 5.683 2.5l6.057-4.845v-.148c-2.977-3.383-7.21-5.332-11.74-5.332z" />
        </g>
    </symbol>
    <symbol id="icon-globe" viewBox="0 0 60 72">
        <g id="icon">
            <path d="M30 9C15.088 9 3 21.088 3 36c0 14.91 12.088 27 27 27 14.914 0 27-12.09 27-27C57 21.087 44.915 9 30 9zm3 33c-.525.504-3.04 2.8-3.582 3.572-.543.772-4.87 10.488-5.387 10.49-.513.002-1.587-1.447-1.87-2.177-.285-.73-1.102-10.317-1.52-10.96-.42-.644-2.896-2.11-3.282-2.643-.39-.533-1.42-3.566-1.357-4.16.063-.592 1.267-2.588.962-3.12-.305-.534-5.676-2.656-6.71-3.034-1.034-.378-2.528-.858-2.528-.858 2.91-9.393 11.61-16.248 21.906-16.41 0 0 .324-.044.48.362.283.735.66 2.77.236 3.46-.365.593-5.682 2.543-7.94 3.79-2.255 1.247-3.14 1.478-3.82 2.208-.68.73-1.706 4.107-2.16 4.402s-3.76.396-3.76.396S18.187 31.624 20 32.03c1.813.406 6.243-.54 7.122-.364S32.562 35.96 33.1 37c.535 1.038.426 4.496-.1 5zm18.063-.5c-.545-.98-3.145-6.04-4.098-6.898-.596-.534-5.658-2.346-6.56-2.802-.905-.456-3.235-2.564-3.257-3.12-.023-.555 2.867-3.094 2.96-3.92.142-1.26-4.84-4.714-4.88-5.278-.04-.564.377-1.7.8-2.08 1.034-.933 8.2.1 9.142.926 5.143 4.517 8.15 10.607 8.15 17.672 0 1.998-.465 4.92-.727 5.61-.202.537-1.14.593-1.53-.11z" />
            <path fill="#fff" d="M45.17 18.327c-.94-.827-8.107-1.858-9.14-.927-.425.38-.84 1.517-.802 2.08.04.566 5.02 4.02 4.88 5.28-.093.825-2.983 3.364-2.96 3.92.02.556 2.352 2.663 3.256 3.12.902.455 5.965 2.267 6.56 2.8.954.858 3.554 5.918 4.1 6.9.39.702 1.327.646 1.53.108.262-.69.727-3.612.727-5.61 0-7.064-3.007-13.154-8.15-17.67zM27.122 31.667c-.88-.177-5.31.77-7.12.364-1.813-.405-7.337-4.71-7.337-4.71s3.305-.1 3.76-.397 1.482-3.673 2.162-4.402c.68-.73 1.564-.96 3.82-2.207 2.258-1.247 7.574-3.197 7.94-3.79.423-.69.046-2.725-.237-3.46-.156-.406-.48-.363-.48-.363-10.296.162-18.997 7.018-21.907 16.41 0 0 1.494.48 2.527.858 1.035.378 6.406 2.5 6.71 3.033.306.534-.897 2.53-.96 3.123-.062.593.97 3.626 1.357 4.16.387.532 2.86 1.997 3.28 2.64.42.645 1.237 10.233 1.522 10.962.282.73 1.356 2.18 1.87 2.177.516-.002 4.844-9.72 5.387-10.49.542-.77 3.058-3.068 3.583-3.572s.635-3.962.098-5c-.535-1.038-5.098-5.156-5.976-5.333z" />
        </g>
    </symbol>
    <symbol id="icon-heart" viewBox="0 0 54 72">
        <path d="M38.723 12c-7.187 0-11.16 7.306-11.723 8.13-.563-.824-4.496-8.13-11.723-8.13C8.79 12 3.533 18.163 3.533 24.647 3.533 39.964 21.89 55.907 27 56c5.11-.093 23.467-16.036 23.467-31.353C50.467 18.163 45.21 12 38.723 12z" id="icon" />
    </symbol>
    <symbol id="icon-lock" viewBox="0 0 50 72">
        <path d="M42 31h-3v-8c0-7.72-6.28-14-14-14s-14 6.28-14 14v8H8c-2.757 0-5 2.243-5 5v22c0 2.757 2.243 5 5 5h34c2.757 0 5-2.243 5-5V36c0-2.757-2.243-5-5-5zm-25-8c0-4.41 3.59-8 8-8s8 3.59 8 8v8H17v-8z" id="icon" />
    </symbol>
    <symbol id="icon-megaphone" viewBox="0 0 60 72">
        <g id="icon">
            <path d="M51 25v19c4 0 6-5.5 6-9.5S55 25 51 25zM43 13c-1.062 0-1.758.523-1.97.734C35.167 19.584 25.014 25 15 25H5c-1.105 0-2 .896-2 2v15c0 1.104.895 2 2 2h9v13c0 2.21 1.79 4 4 4s4-1.79 4-4V44.837c7.532 1.733 14.54 5.95 19.03 10.43.212.21.908.733 1.97.733 1.656 0 3-1.343 3-3V16c0-1.657-1.344-3-3-3z" />
        </g>
    </symbol>
    <symbol id="icon-more" viewBox="0 0 70 72">
        <g id="icon">
            <circle cx="12" cy="36" r="9" />
            <circle cx="35" cy="36" r="9" />
            <circle cx="58" cy="36" r="9" />
        </g>
    </symbol>
    <symbol id="icon-newsBadge" viewBox="0 0 60 72">
        <path d="M49 9H11c-4.418 0-8 3.582-8 8v38c0 4.418 3.582 8 8 8h38c4.418 0 8-3.582 8-8V17c0-4.418-3.582-8-8-8zM26 53H14v-4h12v4zm0-8H14v-4h12v4zm0-8H14v-4h12v4zm20 16H32.037L32 33h14v20zm0-26H14v-8h32v8z" id="icon" />
    </symbol>
    <symbol id="icon-news" viewBox="0 0 60 72">
        <g id="icon">
            <path d="M52 9H8c-2.757 0-5 2.243-5 5v44c0 2.757 2.243 5 5 5h44c2.757 0 5-2.243 5-5V14c0-2.757-2.243-5-5-5zm-1 47c0 .553-.447 1-1 1H10c-.553 0-1-.447-1-1V16c0-.553.447-1 1-1h40c.553 0 1 .447 1 1v40zM13.885 32H26v4H13.885zM13.885 40H26v4H13.885zM13.885 48H26v4H13.885zM14 20h32v8.096H14zM30.038 32H46v20H30.04z" />
        </g>
    </symbol>
    <symbol id="icon-person" viewBox="0 0 58 72">
        <g id="icon">
            <path d="M39.812 34.892c1.55 0 3.915-2.763 4.36-6.453.476-3.904-1.66-4-1.66-4S42.22 10 29 10c-1.685 0-4.33.244-6.537 2.232-6.23.744-6.975 12.207-6.975 12.207s-2.136.095-1.66 3.998c.446 3.69 2.81 6.453 4.36 6.453 0 0 4.137 10.76 10.812 10.76s10.812-10.758 10.812-10.758zM52 49.977c-2.34-1.17-6.673-2.826-13-4.327-3.537 4-7.45 5-10 5s-6.463-1-10-5c-6.327 1.5-10.66 3.156-13 4.327-2.34 1.17-3 4.577-3 6.673 0 3 .875 5 4 5h44c3.125 0 4-2 4-5 0-2.095-.66-5.502-3-6.673z" />
        </g>
    </symbol>
    <symbol id="icon-playCircle" viewBox="0 0 60 72">
        <g id="icon">
            <path d="M39.2 34.34l-12-9c-.606-.455-1.418-.528-2.094-.19-.677.34-1.106 1.032-1.106 1.79v18c0 .758.428 1.45 1.106 1.79.283.14.59.21.894.21.425 0 .847-.136 1.2-.4l12-9c.503-.377.8-.97.8-1.6 0-.63-.295-1.223-.8-1.6zM30 15c11.598 0 21 9.402 21 21s-9.4 20.998-21 20.998-21-9.402-21-21S18.4 15 30 15m0-6C15.112 9 3 21.11 3 36s12.112 26.998 27 26.998 27-12.11 27-27S44.888 9 30 9z" />
        </g>
    </symbol>
    <symbol id="icon-reply" viewBox="0 0 62 72">
        <path d="M41 31h-9V19c0-1.14-.647-2.183-1.668-2.688-1.022-.507-2.243-.39-3.15.302l-21 16C5.438 33.18 5 34.064 5 35s.437 1.82 1.182 2.387l21 16c.533.405 1.174.613 1.82.613.453 0 .908-.103 1.33-.312C31.354 53.183 32 52.14 32 51V39h9c5.514 0 10 4.486 10 10 0 2.21 1.79 4 4 4s4-1.79 4-4c0-9.925-8.075-18-18-18z" id="icon" />
    </symbol>
    <symbol id="icon-retweet" viewBox="0 0 74 72">
        <g id="icon">
            <path d="M70.676 36.644C70.166 35.636 69.13 35 68 35h-7V19c0-2.21-1.79-4-4-4H34c-2.21 0-4 1.79-4 4s1.79 4 4 4h18c.552 0 .998.446 1 .998V35h-7c-1.13 0-2.165.636-2.676 1.644-.51 1.01-.412 2.22.257 3.13l11 15C55.148 55.545 56.046 56 57 56s1.855-.455 2.42-1.226l11-15c.668-.912.767-2.122.256-3.13zM40 48H22c-.54 0-.97-.427-.992-.96L21 36h7c1.13 0 2.166-.636 2.677-1.644.51-1.01.412-2.22-.257-3.13l-11-15C18.854 15.455 17.956 15 17 15s-1.854.455-2.42 1.226l-11 15c-.667.912-.767 2.122-.255 3.13C3.835 35.365 4.87 36 6 36h7l.012 16.003c.002 2.208 1.792 3.997 4 3.997h22.99c2.208 0 4-1.79 4-4s-1.792-4-4-4z" />
        </g>
    </symbol>
    <symbol id="icon-retweetBadge" viewBox="0 0 60 72">
        <path d="M49 9H11c-4.418 0-8 3.582-8 8v38c0 4.418 3.582 8 8 8h38c4.418 0 8-3.582 8-8V17c0-4.418-3.582-8-8-8zM21 44h10c1.657 0 3 1.343 3 3s-1.343 3-3 3H17c-1.657 0-3-1.343-3-3V36H9c-.77 0-1.47-.44-1.803-1.134-.333-.692-.24-1.516.24-2.115l8-10c.76-.948 2.365-.948 3.124 0l8 10c.48.6.575 1.424.242 2.116C26.47 35.56 25.77 36 25 36h-5v7c0 .553.448 1 1 1zm31.562-4.75l-8 10c-.38.474-.954.75-1.562.75s-1.182-.276-1.562-.75l-8-10c-.48-.6-.574-1.424-.24-2.116C33.53 36.44 34.23 36 35 36h5v-7c0-.553-.447-1-1-1H29c-1.657 0-3-1.343-3-3s1.343-3 3-3h14c1.657 0 3 1.343 3 3v11h5c.77 0 1.47.44 1.803 1.134.333.692.24 1.515-.24 2.115z" id="icon" />
    </symbol>
    <symbol id="icon-search" viewBox="0 0 56 72">
        <g id="icon">
            <path d="M51.644 53.096l-7.41-7.41c-1.067-1.067-2.525-1.488-3.914-1.294l-2.328-2.328c2.51-3.343 3.89-7.375 3.894-11.628.005-5.2-2.016-10.084-5.69-13.757-3.667-3.67-8.547-5.69-13.74-5.69-5.2 0-10.09 2.028-13.77 5.71-7.58 7.582-7.582 19.916-.005 27.494 3.673 3.67 8.553 5.693 13.744 5.693 4.257 0 8.294-1.38 11.64-3.893l2.326 2.327c-.193 1.39.227 2.848 1.295 3.916l7.41 7.41C46 60.547 47.184 61 48.37 61s2.37-.452 3.274-1.357c1.81-1.807 1.81-4.74 0-6.547zM34.94 30.44c0 6.903-5.597 12.5-12.5 12.5s-12.5-5.597-12.5-12.5 5.595-12.5 12.5-12.5 12.5 5.595 12.5 12.5zM51.644 53.096l-7.41-7.41c-1.067-1.067-2.525-1.488-3.914-1.294l-2.328-2.328c2.51-3.343 3.89-7.375 3.894-11.628.005-5.2-2.016-10.084-5.69-13.757-3.667-3.67-8.547-5.69-13.74-5.69-5.2 0-10.09 2.028-13.77 5.71-7.58 7.582-7.582 19.916-.005 27.494 3.673 3.67 8.553 5.693 13.744 5.693 4.257 0 8.294-1.38 11.64-3.893l2.326 2.327c-.193 1.39.227 2.848 1.295 3.916l7.41 7.41C46 60.547 47.184 61 48.37 61s2.37-.452 3.274-1.357c1.81-1.807 1.81-4.74 0-6.547zM34.94 30.44c0 6.903-5.597 12.5-12.5 12.5s-12.5-5.597-12.5-12.5 5.595-12.5 12.5-12.5 12.5 5.595 12.5 12.5z" />
        </g>
    </symbol>
    <symbol id="icon-twitter" viewBox="0 0 72 72">
        <path d="M68.812 15.14c-2.348 1.04-4.87 1.744-7.52 2.06 2.704-1.62 4.78-4.186 5.757-7.243-2.53 1.5-5.33 2.592-8.314 3.176C56.35 10.59 52.948 9 49.182 9c-7.23 0-13.092 5.86-13.092 13.093 0 1.026.118 2.02.338 2.98C25.543 24.527 15.9 19.318 9.44 11.396c-1.125 1.936-1.77 4.184-1.77 6.58 0 4.543 2.312 8.552 5.824 10.9-2.146-.07-4.165-.658-5.93-1.64-.002.056-.002.11-.002.163 0 6.345 4.513 11.638 10.504 12.84-1.1.298-2.256.457-3.45.457-.845 0-1.666-.078-2.464-.23 1.667 5.2 6.5 8.985 12.23 9.09-4.482 3.51-10.13 5.605-16.26 5.605-1.055 0-2.096-.06-3.122-.184 5.794 3.717 12.676 5.882 20.067 5.882 24.083 0 37.25-19.95 37.25-37.25 0-.565-.013-1.133-.038-1.693 2.558-1.847 4.778-4.15 6.532-6.774z" id="icon" />
    </symbol>
    <symbol id="icon-verified" viewBox="0 0 60 72">
        <g id="icon">
            <path d="M3 37.288c0 3.84 2.013 7.193 4.993 8.96-.052.435-.083.874-.083 1.323 0 5.683 4.392 10.284 9.818 10.284 1.207 0 2.368-.218 3.434-.638C22.758 60.644 26.115 63 30 63c3.887 0 7.246-2.356 8.837-5.784 1.068.42 2.224.638 3.436.638 5.423 0 9.818-4.6 9.818-10.283 0-.448-.034-.886-.085-1.322C54.982 44.48 57 41.128 57 37.288c0-4.07-2.25-7.59-5.52-9.26.396-1.12.612-2.328.612-3.598 0-5.683-4.394-10.283-9.818-10.283-1.212 0-2.368.216-3.436.64C37.246 11.357 33.888 9 30 9c-3.885 0-7.242 2.357-8.837 5.787-1.066-.424-2.228-.64-3.434-.64-5.426 0-9.82 4.6-9.82 10.283 0 1.27.216 2.478.612 3.598-3.27 1.67-5.52 5.19-5.52 9.26z" />
            <path fill="#fff" d="M16.846 38.93l6.53 6.498c.545.542 1.258.813 1.97.813.717 0 1.434-.274 1.98-.822.32-.322 14.878-14.872 14.878-14.872 1.09-1.09 1.09-2.86 0-3.95-1.09-1.09-2.858-1.09-3.95 0L25.342 39.5l-4.554-4.532c-1.093-1.087-2.862-1.084-3.95.01-1.088 1.093-1.084 2.862.01 3.95z" />
        </g>
    </symbol>
    <symbol id="icon-vine" viewBox="0 0 54 72">
        <path d="M48.23 31.25c1.21-2.712 1.877-6.235 1.877-9.32 0-8.304-4.205-13.136-11.894-13.136-7.91 0-12.54 6.136-12.54 14.225 0 8.01 3.71 14.887 9.838 18.018-2.573 5.194-5.853 9.775-9.264 13.22-6.2-7.56-11.803-17.644-14.103-37.32H3c4.223 32.774 16.814 43.21 20.143 45.213 1.883 1.147 3.505 1.09 5.227.112 2.705-1.555 10.814-9.738 15.32-19.33 1.883-.005 4.153-.223 6.417-.737V35.74c-1.384.32-2.726.465-3.934.465-6.776 0-11.997-4.774-11.997-13.082 0-4.068 1.558-6.184 3.767-6.184 2.1 0 3.493 1.9 3.493 5.754 0 2.186-.575 4.59-1.01 6.01 0 0 2.093 3.677 7.804 2.547z" id="icon" />
    </symbol>
</svg>
