<?xml version="1.0" encoding="utf-8"?>
<!-- Generator: Adobe Illustrator 19.2.0, SVG Export Plug-In . SVG Version: 6.00 Build 0)  -->
<svg version="1.1" id="Capa_1" xmlns="http://www.w3.org/2000/svg" xmlns:xlink="http://www.w3.org/1999/xlink" x="0px" y="0px"
	 viewBox="0 0 144.2 112" style="enable-background:new 0 0 144.2 112;" xml:space="preserve">
<style type="text/css">
	.st0{fill:#E8E9E9;}
	.st1{fill:#BBBFC2;}
	.st2{fill:#A8C836;}
	.st3{fill:#585756;}
	.st4{fill:#FFFFFF;}
</style>
<circle class="st0" cx="102.5" cy="41" r="39.4"/>
<path class="st1" d="M87.8,15.1H64.2l-0.6-1.3c-0.6-1.3-2.1-2.8-4-2.8c-0.7,0-1.2,0.1-1.6,0.2l-2.1,0.9L55.1,10
	c-1.2-3.3-4.4-5.5-7.9-5.5c-4.6,0-8.4,5.1-8.4,8.4l0,2.2H15.8v-4.5h18.8C35.8,5.4,41,0,47.2,0c4.7,0,9,2.6,11.2,6.6
	c0.4,0,0.8-0.1,1.2-0.1c2.9,0,5.7,1.6,7.4,4.1h20.8V15.1z"/>
<path class="st1" d="M141.9,26.4h-10.1l-0.7-1c-0.9-1.3-3.2-3.5-6.1-3.2l-1.5,0.2l-0.7-1.3c-1.3-2.3-3.7-3.7-6.1-3.7
	c-4,0-7,3.6-7,6.8l0,2.2h-24v-4.5h19.8c1.2-5,6-9,11.3-9c3.6,0,7,1.8,9.2,4.8c3.5,0.1,6.4,2.1,8.2,4.2h7.8V26.4z"/>
<path class="st2" d="M139.6,89.5c0.1-2.6,1.1-12.4-5.4-14c-0.6-1.1-3-6.3-5-10.8c-1.9-4.2-6-6.8-10.6-6.8h-17.3v42.8h37.4
	c0,0,3.2-2.1,3.2-4.5C141.9,93.9,142.5,90.2,139.6,89.5z"/>
<path class="st3" d="M139.4,103h-38.1v-4.5H138c0.9-0.7,1.7-1.7,1.7-2.3c0-0.3,0-0.7,0-1.1c0.1-1.7,0-3.3-0.6-3.5l-1.7-0.5l0.1-2.6
	c0.2-4.6,0-10-3.7-10.9l-1-0.2l-0.5-0.9c-0.2-0.3-0.7-1.3-5.1-10.9c-1.5-3.3-4.9-5.5-8.6-5.5h-17.3v-4.5h17.3
	c5.4,0,10.4,3.2,12.7,8.1c2.7,5.8,4,8.6,4.6,9.8c6.2,2.3,6.3,10.5,6.1,14.5c2.4,1.7,2.3,5.2,2.2,7.2c0,0.3,0,0.7,0,1
	c0,3.4-3.5,5.9-4.2,6.4L139.4,103z"/>
<path class="st4" d="M123.9,75.8l-3.7-7.9c-0.3-0.6-0.8-0.9-1.5-0.9h-8.4v11.3h12C123.6,78.2,124.5,76.9,123.9,75.8z"/>
<path class="st3" d="M122.4,80.5h-14.3V64.7h10.7c1.5,0,2.9,0.9,3.5,2.2l3.7,7.9c0.6,1.2,0.5,2.7-0.2,3.8
	C125,79.8,123.7,80.5,122.4,80.5z M121.9,76.7L121.9,76.7L121.9,76.7z M112.6,76h8.9l-3.2-6.8h-5.8V76z"/>
<polygon class="st4" points="29.3,37.7 29.3,55.7 29.3,80.5 29.3,100.7 101.3,100.7 101.3,37.7 "/>
<polygon class="st3" points="103.6,103 27,103 27,80.5 31.5,80.5 31.5,98.5 99.1,98.5 99.1,39.9 31.5,39.9 31.5,55.7 27,55.7 
	27,35.4 103.6,35.4 "/>
<rect x="27" y="62.4" class="st3" width="4.5" height="13.5"/>
<ellipse class="st0" cx="49.6" cy="100.7" rx="9" ry="9"/>
<path class="st3" d="M49.6,112c-6.2,0-11.3-5-11.3-11.2s5.1-11.2,11.3-11.2s11.3,5,11.3,11.2S55.8,112,49.6,112z M49.6,94
	c-3.7,0-6.8,3-6.8,6.7s3,6.7,6.8,6.7c3.7,0,6.8-3,6.8-6.7S53.3,94,49.6,94z"/>
<ellipse class="st0" cx="117.1" cy="100.7" rx="9" ry="9"/>
<path class="st3" d="M117.1,112c-6.2,0-11.3-5-11.3-11.2s5.1-11.2,11.3-11.2c6.2,0,11.3,5,11.3,11.2S123.3,112,117.1,112z M117.1,94
	c-3.7,0-6.8,3-6.8,6.7s3,6.7,6.8,6.7c3.7,0,6.8-3,6.8-6.7S120.9,94,117.1,94z"/>
<rect x="9" y="71.5" class="st3" width="42.8" height="4.5"/>
<rect x="20.3" y="53.4" class="st3" width="56.3" height="4.5"/>
<rect x="20.3" y="35.4" class="st3" width="69.8" height="4.5"/>
<rect x="11.3" y="35.4" class="st3" width="4.5" height="4.5"/>
<rect x="2.3" y="35.4" class="st3" width="4.5" height="4.5"/>
<rect y="71.5" class="st3" width="4.5" height="4.5"/>
<rect x="11.3" y="53.4" class="st3" width="4.5" height="4.5"/>
</svg>
