<svg version="1" xmlns="http://www.w3.org/2000/svg" width="510.667" height="510.667" viewBox="0 0 383.000000 383.000000"><path d="M294.5 18.7c-.8 3.5-7.8 17.3-14.2 28.3-17 29-21 36.3-24.5 44.3-2.1 4.9-4 9.6-4.2 10.5-.1 1-.8 3.5-1.4 5.7-7.9 28.3 5.1 54.8 31.4 63.5 26 8.7 54.8-6.9 61.9-33.6 1.7-6.5 2.1-20.1.6-25.2-.5-1.7-.8-3.2-.6-3.2 1 0-5.8-17.6-9.8-25.5-5.5-10.6-7.5-14.2-18.2-31.2-8.1-13-18.5-32.7-18.5-35 0-2.4-1.8-1.3-2.5 1.4z"/><path d="M76.8 118.5c-.2.1-2.8.6-5.8.9-3 .4-9.2 1.9-13.7 3.5C13 138.2-11 189.3 5.9 232.5c2.7 6.9 5.9 12.8 6.2 11.4 0-.2.3-2 .6-3.9.2-1.9 1.3-6.5 2.4-10.3 7.2-24.5 24.8-40.7 50.4-46.3 6.1-1.3 29-1.2 36 .1 26.4 5.1 51.1 15.6 103 43.6 30.8 16.6 59.8 30.2 69.4 32.5.9.2 3.4.8 5.6 1.4 9.5 2.5 23.7 3.2 33.6 1.7 17.6-2.7 38.2-15.5 51-31.7 8.6-10.9 15.9-27.8 17.8-41.1.9-6.5.7-22.9-.4-28.4-1.8-9.3-9-28.4-10.2-27.2-.2.3-.7 2-.9 3.9-4.8 32.1-27 55.9-56.4 60.5-5.8.9-24.2 1-30 .1-7.6-1.1-21-4.8-31-8.5-10.1-3.7-36.3-16.2-49.5-23.5-4.4-2.5-11.1-6.2-15-8.3-3.8-2.1-11-6-16-8.8-21.3-11.6-52-25.1-61.6-27.1-1.3-.3-3.9-.9-5.7-1.5-1.8-.5-3.6-1-4-1-.4 0-2.5-.3-4.7-.6-4.7-.7-19.2-1.4-19.7-1z"/><path d="M73.2 210.4c-11.1 2.8-22.4 10.8-29 20.7-8.8 13.1-10.1 31.3-3.7 50.4 3.2 9.5 6.5 16.7 12.2 26.3 2.4 4.1 4.3 7.8 4.3 8.3 0 .5.5.9 1 .9.6 0 1 .5 1 1.1 0 .6 1.3 2.9 2.9 5.2 6.9 10.1 21.3 36.5 23.3 42.7.2.8 1.2-.7 2.1-3.4 1.9-5.5 10.4-21.4 17.6-33.1 16.8-27.1 25.4-44 26.1-51.7 0-.4.8-2.7 1.6-5 1.9-5.5 2.5-16.7 1.2-23.8-4.8-27-33.6-45.3-60.6-38.6z"/></svg>