<?xml version="1.0" encoding="utf-8"?>
<!-- Generator: Adobe Illustrator 19.2.0, SVG Export Plug-In . SVG Version: 6.00 Build 0)  -->
<svg version="1.1" id="Capa_1" xmlns="http://www.w3.org/2000/svg" xmlns:xlink="http://www.w3.org/1999/xlink" x="0px" y="0px"
	 viewBox="0 0 148.7 92" style="enable-background:new 0 0 148.7 92;" xml:space="preserve">
<style type="text/css">
	.st0{fill:#585756;}
	.st1{fill-rule:evenodd;clip-rule:evenodd;fill:url(#XMLID_2_);}
	.st2{fill-rule:evenodd;clip-rule:evenodd;fill:url(#XMLID_3_);}
	.st3{fill-rule:evenodd;clip-rule:evenodd;fill:url(#XMLID_4_);}
	.st4{fill:url(#XMLID_5_);}
	.st5{fill:url(#XMLID_6_);}
</style>
<g id="XMLID_36542_">
	<g id="XMLID_36543_">
		<g id="XMLID_36544_">
			<g id="XMLID_36551_">
				<g id="XMLID_36557_">
					<path id="XMLID_36574_" class="st0" d="M54.2,75.8c0,2.7-1,4.8-3,6.3c-2,1.5-4.5,2.3-7.6,2.3c-4.5,0-7.9-1.3-10.4-3.8l3.6-3.6
						c1.6,1.6,3.9,2.4,6.9,2.4c3.4,0,5-1.2,5-3.5c0-1.1-0.3-1.9-0.8-2.4c-0.6-0.5-1.4-0.9-2.6-1L41.9,72c-5-0.7-7.6-3.3-7.6-8
						c0-2.6,0.9-4.7,2.7-6.3c1.8-1.6,4.2-2.4,7.2-2.4c3.8,0,6.9,1.1,9.2,3.3L50,62.2c-1.4-1.3-3.3-2-5.8-2c-1.4,0-2.5,0.3-3.3,1
						c-0.8,0.7-1.1,1.5-1.1,2.6c0,0.8,0.3,1.5,0.9,2.1c0.6,0.6,1.5,0.9,2.6,1.1l3.4,0.5c2.4,0.3,4.2,1.1,5.4,2.2
						C53.5,71.1,54.2,73.1,54.2,75.8z"/>
					<path id="XMLID_36571_" class="st0" d="M73.8,75.4H60.7c0,1.4,0.4,2.5,1.2,3.4c0.8,0.9,1.9,1.3,3.3,1.3c1.8,0,3.4-0.7,4.7-2
						l3.2,3.1c-1.1,1.1-2.3,2-3.4,2.4c-1.3,0.6-2.8,0.8-4.6,0.8c-6.4,0-9.7-3.6-9.7-10.7c0-3.3,0.8-6,2.5-7.9
						c1.6-1.8,3.8-2.8,6.6-2.8c2.8,0,5.1,0.9,6.7,2.8c1.6,1.8,2.4,4.2,2.4,7.1V75.4z M68.7,71.8c0-0.9-0.2-1.6-0.5-2.2
						c-0.6-1.4-1.8-2.2-3.5-2.2c-1.7,0-2.8,0.7-3.5,2.2c-0.3,0.6-0.5,1.4-0.5,2.2H68.7z"/>
					<path id="XMLID_36569_" class="st0" d="M91.8,77.6c0,2.2-0.9,3.9-2.6,5.1c-1.6,1.1-3.7,1.7-6.3,1.7c-2,0-3.5-0.2-4.8-0.5
						c-1.5-0.5-2.9-1.3-4.1-2.5l3.4-3.4c1.3,1.3,3.2,2,5.6,2c2.5,0,3.7-0.7,3.7-2.2c0-1.1-0.7-1.8-2.2-1.9l-3.3-0.3
						c-4.1-0.4-6.1-2.3-6.1-5.8c0-2.1,0.8-3.7,2.4-5c1.5-1.1,3.4-1.7,5.6-1.7c3.6,0,6.2,0.8,8,2.4L88,68.7c-1-0.9-2.7-1.4-4.8-1.4
						c-2,0-3,0.7-3,2c0,1.1,0.7,1.7,2.2,1.8l3.3,0.3C89.8,71.9,91.8,73.9,91.8,77.6z"/>
					<path id="XMLID_36566_" class="st0" d="M110.4,84.4h-5.1v-2c-1.3,1.3-3,2-5.1,2c-2.4,0-4.1-0.6-5.3-1.8
						c-1.2-1.2-1.8-2.8-1.8-4.7c0-1.8,0.6-3.2,1.8-4.3c1.2-1.1,3-1.7,5.3-1.7h4.9v-1c0-2.2-1.3-3.3-3.9-3.3c-1.7,0-3,0.6-4,1.7
						L94,65.9c1-1.1,2.1-1.9,3.2-2.3c1.1-0.4,2.5-0.6,4.3-0.6c5.9,0,8.9,2.5,8.9,7.4V84.4z M105.1,76.5v-1.1H101
						c-1.9,0-2.9,0.8-2.9,2.4c0,1.6,1,2.4,3,2.4c1.8,0,3-0.4,3.5-1.3C105,78.3,105.1,77.5,105.1,76.5z"/>
					<path id="XMLID_36563_" class="st0" d="M118.3,86c0,1.6-0.5,3-1.4,4.1c-1.1,1.3-2.6,1.9-4.6,1.9h-3v-4.4h2
						c1.2,0,1.8-0.6,1.8-1.9V63.3h5.2V86z M118.3,59.8h-5.2v-4.2h5.2V59.8z"/>
					<path id="XMLID_36560_" class="st0" d="M137.4,84.4h-5.1v-2c-1.3,1.3-3,2-5.1,2c-2.3,0-4.1-0.6-5.3-1.8
						c-1.2-1.2-1.8-2.8-1.8-4.7c0-1.8,0.6-3.2,1.8-4.3c1.2-1.1,3-1.7,5.3-1.7h4.9v-1c0-2.2-1.3-3.3-3.9-3.3c-1.7,0-3,0.6-4,1.7
						l-3.3-3.2c1-1.1,2.1-1.9,3.2-2.3c1.1-0.4,2.5-0.6,4.3-0.6c5.9,0,8.9,2.5,8.9,7.4V84.4z M132.1,76.5v-1.1H128
						c-1.9,0-2.9,0.8-2.9,2.4c0,1.6,1,2.4,3,2.4c1.8,0,3-0.4,3.5-1.3C132,78.3,132.1,77.5,132.1,76.5z"/>
					<path id="XMLID_36558_" class="st0" d="M147.8,84.4h-3c-2,0-3.6-0.6-4.6-1.9c-1-1.1-1.4-2.5-1.4-4.1V55.5h5.2v22.6
						c0,1.3,0.6,1.9,1.8,1.9h2V84.4z"/>
				</g>
				<linearGradient id="XMLID_2_" gradientUnits="userSpaceOnUse" x1="0" y1="42.1648" x2="91.8515" y2="42.1648">
					<stop  offset="0.1902" style="stop-color:#1A8539"/>
					<stop  offset="0.5215" style="stop-color:#94BB30"/>
					<stop  offset="0.8405" style="stop-color:#1A8539"/>
				</linearGradient>
				<path id="XMLID_36556_" class="st1" d="M2.8,55c0,0,0.5-15.1,17.2-15.1c16.7,0,38.4,19.7,51.9,19.7c13.5,0,25.5-15.8,17.1-31.4
					c0.1-0.1-0.8,16.1-17.4,16.1c-16.6,0-35.9-19.6-51.9-19.6C4.8,24.8-5.1,42,2.8,55z"/>
				<linearGradient id="XMLID_3_" gradientUnits="userSpaceOnUse" x1="55.3145" y1="43.8767" x2="91.8515" y2="43.8767">
					<stop  offset="0.4417" style="stop-color:#94BB30"/>
					<stop  offset="1" style="stop-color:#1A8539"/>
				</linearGradient>
				<path id="XMLID_36555_" class="st2" d="M71.9,59.6c13.5,0,25.5-15.8,17.1-31.4c0,0,0,0,0,0c0,0,0,0,0,0c0,0,0,0,0,0.1
					c0,0,0,0,0,0.1c0,0,0,0.1,0,0.1c0,0.1,0,0.3-0.1,0.6c0,0,0,0,0,0c-0.1,1-0.4,2.6-1.1,4.5C85.4,41.3,77.8,54.9,55.3,54
					c0,0,0.1,0.1,0.1,0.1C61.6,57.2,67.3,59.6,71.9,59.6"/>
				<linearGradient id="XMLID_4_" gradientUnits="userSpaceOnUse" x1="36.6935" y1="39.822" x2="2.779456e-03" y2="39.822">
					<stop  offset="0.4417" style="stop-color:#94BB30"/>
					<stop  offset="1" style="stop-color:#1A8539"/>
				</linearGradient>
				<path id="XMLID_36554_" class="st3" d="M36.7,29.9c-0.1,0-0.1-0.1-0.2-0.1c-5.8-2.9-11.5-5-16.8-5c-14.8,0-24.8,17.1-17,30.1
					c0-0.5-0.1-1.6,0.9-4.2C6.1,42.9,14.2,29,36.7,29.9z"/>
				
					<radialGradient id="XMLID_5_" cx="-7173.2495" cy="-2798.5078" r="51.4999" gradientTransform="matrix(0.381 0 0 0.381 2807.8325 1091.6423)" gradientUnits="userSpaceOnUse">
					<stop  offset="0" style="stop-color:#F2E317"/>
					<stop  offset="1" style="stop-color:#F3C325"/>
				</radialGradient>
				<path id="XMLID_36553_" class="st4" d="M82.8,26.1c0-0.5,0-0.9-0.1-1.4c-0.6-7-5.7-13.2-9.3-19.6c-0.5-1-1-1.9-1.5-2.9
					c-0.3-0.7-0.6-1.5-0.9-2.3c-0.6,1.8-1.4,3.5-2.4,5.2C65.5,11,61,16.7,59.8,23c-0.3,1-0.4,2-0.4,3.1c0,6.5,5.3,11.8,11.8,11.8
					c0.1,0,0.2,0,0.3,0c0.1,0,0.2,0,0.3,0C77.9,37.5,82.8,32.4,82.8,26.1z"/>
				
					<radialGradient id="XMLID_6_" cx="-7310.8247" cy="-2715.3291" r="43.0392" gradientTransform="matrix(0.381 0 0 0.381 2807.8325 1091.6423)" gradientUnits="userSpaceOnUse">
					<stop  offset="0" style="stop-color:#F2E317"/>
					<stop  offset="1" style="stop-color:#F3C325"/>
				</radialGradient>
				<path id="XMLID_36552_" class="st5" d="M8.6,58.2c0,0.5,0,0.9,0.1,1.4c0.6,7,5.7,13.2,9.3,19.6c0.5,1,1,1.9,1.5,2.9
					c0.3,0.7,0.6,1.5,0.9,2.3c0.6-1.8,1.4-3.5,2.4-5.2c3.2-5.9,7.8-11.5,9-17.9c0.3-1,0.4-2,0.4-3.1c0-6.5-5.3-11.7-11.8-11.7
					c-0.1,0-0.2,0-0.3,0c-0.1,0-0.2,0-0.3,0C13.6,46.7,8.6,51.9,8.6,58.2z"/>
			</g>
			<g id="XMLID_36545_">
				<path id="XMLID_36546_" class="st0" d="M147.4,58c-0.2,0-0.3,0-0.5-0.1c-0.2-0.1-0.3-0.2-0.4-0.3c-0.1-0.1-0.2-0.2-0.3-0.4
					c-0.1-0.2-0.1-0.3-0.1-0.5v0c0-0.2,0-0.3,0.1-0.5c0.1-0.2,0.2-0.3,0.3-0.4c0.1-0.1,0.2-0.2,0.4-0.3c0.2-0.1,0.3-0.1,0.5-0.1
					c0.2,0,0.3,0,0.5,0.1c0.2,0.1,0.3,0.2,0.4,0.3c0.1,0.1,0.2,0.2,0.3,0.4c0.1,0.2,0.1,0.3,0.1,0.5v0c0,0.2,0,0.3-0.1,0.5
					c-0.1,0.2-0.2,0.3-0.3,0.4c-0.1,0.1-0.2,0.2-0.4,0.3C147.7,58,147.6,58,147.4,58z M147.4,57.9c0.2,0,0.3,0,0.4-0.1
					c0.1-0.1,0.3-0.1,0.4-0.2c0.1-0.1,0.2-0.2,0.2-0.4c0.1-0.1,0.1-0.3,0.1-0.4v0c0-0.2,0-0.3-0.1-0.4c-0.1-0.1-0.1-0.3-0.2-0.4
					c-0.1-0.1-0.2-0.2-0.3-0.2c-0.1-0.1-0.3-0.1-0.4-0.1c-0.2,0-0.3,0-0.4,0.1c-0.1,0.1-0.3,0.1-0.4,0.2c-0.1,0.1-0.2,0.2-0.2,0.4
					c-0.1,0.1-0.1,0.3-0.1,0.4v0c0,0.2,0,0.3,0.1,0.4c0.1,0.1,0.1,0.3,0.2,0.4c0.1,0.1,0.2,0.2,0.4,0.2
					C147.1,57.8,147.3,57.9,147.4,57.9z M146.9,56h0.6c0.2,0,0.3,0,0.4,0.1c0.1,0.1,0.1,0.2,0.1,0.3v0c0,0.1,0,0.2-0.1,0.3
					c-0.1,0.1-0.1,0.1-0.2,0.1l0.3,0.5h-0.3l-0.3-0.4h0h-0.2v0.4h-0.3V56z M147.5,56.7c0.1,0,0.1,0,0.2-0.1c0,0,0.1-0.1,0.1-0.1v0
					c0-0.1,0-0.1-0.1-0.1c0,0-0.1,0-0.2,0h-0.3v0.4H147.5z"/>
			</g>
		</g>
	</g>
</g>
</svg>
